<svg xmlns="http://www.w3.org/2000/svg" viewBox="0 0 100 100">
    <rect width="100" height="100" rx="22" fill="#0D1117" />
    <rect x="8" y="8" width="84" height="84" rx="16" fill="#6C63FF" opacity="0.15" />
    <!-- Brain outline -->
    <path
        d="M50 20 C35 20 24 30 24 42 C24 48 27 53 32 57 C30 60 29 64 30 68 C31 74 37 78 43 77 C45 80 47 82 50 82 C53 82 55 80 57 77 C63 78 69 74 70 68 C71 64 70 60 68 57 C73 53 76 48 76 42 C76 30 65 20 50 20Z"
        fill="none" stroke="#6C63FF" stroke-width="3.5" stroke-linejoin="round" />
    <!-- Center line -->
    <line x1="50" y1="22" x2="50" y2="80" stroke="#6C63FF" stroke-width="2" opacity="0.5" />
    <!-- Neural lines left -->
    <path d="M38 35 C34 38 33 43 35 47" stroke="#6C63FF" stroke-width="2" fill="none"
        stroke-linecap="round" />
    <path d="M36 52 C33 55 34 60 37 63" stroke="#6C63FF" stroke-width="2" fill="none"
        stroke-linecap="round" />
    <!-- Neural lines right -->
    <path d="M62 35 C66 38 67 43 65 47" stroke="#6C63FF" stroke-width="2" fill="none"
        stroke-linecap="round" />
    <path d="M64 52 C67 55 66 60 63 63" stroke="#6C63FF" stroke-width="2" fill="none"
        stroke-linecap="round" />
</svg>